<?xml version="1.0" encoding="UTF-8" standalone="no"?>
<!-- Created with Inkscape (http://www.inkscape.org/) -->

<svg
   xmlns:dc="http://purl.org/dc/elements/1.1/"
   xmlns:cc="http://creativecommons.org/ns#"
   xmlns:rdf="http://www.w3.org/1999/02/22-rdf-syntax-ns#"
   xmlns:svg="http://www.w3.org/2000/svg"
   xmlns="http://www.w3.org/2000/svg"
   xmlns:sodipodi="http://sodipodi.sourceforge.net/DTD/sodipodi-0.dtd"
   xmlns:inkscape="http://www.inkscape.org/namespaces/inkscape"
   id="svg2"
   version="1.1"
   inkscape:version="0.48.3.1 r9886"
   width="361.25"
   height="341.25"
   xml:space="preserve"
   sodipodi:docname="Athletics Secondary .eps"><metadata
     id="metadata8"><rdf:RDF><cc:Work
         rdf:about=""><dc:format>image/svg+xml</dc:format><dc:type
           rdf:resource="http://purl.org/dc/dcmitype/StillImage" /><dc:title></dc:title></cc:Work></rdf:RDF></metadata><defs
     id="defs6"><clipPath
       clipPathUnits="userSpaceOnUse"
       id="clipPath18"><path
         d="m 0,2721.93 2890,0 0,-2720.00031 -2890,0 L 0,2721.93 z"
         id="path20" /></clipPath></defs><sodipodi:namedview
     pagecolor="#ffffff"
     bordercolor="#666666"
     borderopacity="1"
     objecttolerance="10"
     gridtolerance="10"
     guidetolerance="10"
     inkscape:pageopacity="0"
     inkscape:pageshadow="2"
     inkscape:window-width="640"
     inkscape:window-height="480"
     id="namedview4"
     showgrid="false"
     inkscape:zoom="0.69157509"
     inkscape:cx="180.625"
     inkscape:cy="170.625"
     inkscape:window-x="0"
     inkscape:window-y="24"
     inkscape:window-maximized="0"
     inkscape:current-layer="g10" /><g
     id="g10"
     inkscape:groupmode="layer"
     inkscape:label="ink_ext_XXXXXX"
     transform="matrix(1.25,0,0,-1.25,0,341.25)"><g
       id="g12"
       transform="scale(0.1,0.1)"><g
         id="g14"><g
           id="g16"
           clip-path="url(#clipPath18)"><path
             d="m 1648.12,2720.99 c 0.16,0.08 0.32,0.12 0.43,0.2 0.55,0.19 1.18,0.5 1.72,0.74 l -2.15,-0.94"
             style="fill:#ffffff;fill-opacity:1;fill-rule:nonzero;stroke:none"
             id="path22" /><path
             d="m 245.199,1250.95 0.031,0 -0.851,-0.19 0.82,0.19"
             style="fill:#ffffff;fill-opacity:1;fill-rule:nonzero;stroke:none"
             id="path24" /><path
             d="m 1716.33,2200.64 c 79.76,4.1 150.39,43.08 225.58,66.01 56.37,22.46 232.47,113.71 270.51,125.63 5.55,-6.88 55.28,-53.28 77.97,-126.52 14.65,2.26 29.81,11.91 44.02,17.38 83.44,28.9 188.44,24.8 264.11,-17.38 25.23,18.32 63.28,15.58 93.51,10.97 31.21,-22.46 47.23,-56.37 70.63,-84.8 40.35,-16.96 94.02,-31.17 105.46,-80.24 7.78,-50 22.9,-103.63 12.39,-154.06 -25.24,-34.84 -59.61,-60.98 -94.92,-84.84 -23.83,-70.63 -85.75,-114.18 -141.68,-161.84 -51.37,-42.66 -124.26,-41.29 -191.64,-39.45 -55.04,5.04 -2008.25,-649.14 -2002.739,-613.4 -44.492,13.32 -273.75,271.01 -271.91,286.13 -39.891,6.41 -83.4413,20.2 -99.9608,33.95 -30.711,55.47 -59.0704,124.33 -65.9414,188.98 -20.62896,47.23 -11.640675,147.89 8.5507,194.65 37.5821,39.92 78.4024,69.26 127.8905,83.48 33.481,49.49 136.641,171.01 341.18,212.3 24.719,38.95 55.93,67.38 92.14,94.88 10.079,52.27 13.75,110.51 33.008,160.51 5.981,8.24 10.551,21.1 21.992,22.89 103.051,-21.52 359.809,-97.93 492.93,-140.74 5.04,3.2 581.88,4.14 586.92,5.51"
             style="fill:#231f20;fill-opacity:1;fill-rule:nonzero;stroke:none"
             id="path26" /><path
             d="m 2255.55,2261.15 c -23.4,10.07 -50.9,8.71 -76.14,6.87 -0.46,28.91 12.86,55.04 19.73,82.54 26.6,-22.93 48.13,-55.04 56.41,-89.41"
             style="fill:#ce0f3e;fill-opacity:1;fill-rule:nonzero;stroke:none"
             id="path28" /><path
             d="m 2151.91,2312.04 c -21.09,-105.89 -45.86,-210.46 -93.51,-304.92 -9.65,-4.57 -18.36,6.92 -27.54,9.65 -8.24,11.02 -18.79,22.93 -28.44,32.07 7.35,25.24 16.06,50.9 37.15,69.26 -21.52,61.44 5.04,122.89 35.31,175.16 9.18,9.6 22.93,12.38 33.95,18.78 l 42.19,22.04 c 8.24,-5.98 -2.78,-14.69 0.89,-22.04"
             style="fill:#ce0f3e;fill-opacity:1;fill-rule:nonzero;stroke:none"
             id="path30" /><path
             d="m 729.102,2229.51 c 15.16,-33.01 23.398,-81.14 5.546,-115.55 72.114,-54.85 83.442,-118.28 73.793,-178.36 46.758,-23.36 57.93,-95.08 62.539,-148.56 37.571,-6.87 113.079,-71.83 113.079,-71.83 35.321,28.9 82.971,47.07 126.991,56.25 9.65,43.08 30.28,92.62 77.04,106.83 l 6.44,13.29 c 0.47,24.76 14.22,47.22 28.44,68.32 3.63,7.34 16.48,9.64 16.48,9.64 1.41,-16.52 -7.38,-39.8 9.18,-48.16 4.57,-9.14 -52.26,-101.33 -84.84,-135.7 -37.58,-34.85 -72.89,-68.79 -121.06,-85.74 -54.058,-9.18 -126.05,-20.63 -162.73,29.8 -11.02,2.3 -27.07,37.15 -35.309,41.72 -39.921,48.12 -59.179,104.53 -84.851,158.63 -25.66,74.73 -64.18,144.45 -77.031,224.22 -7.77,18.79 -7.34,42.66 -16.481,61.91 -8.277,28.87 -14.219,59.14 -17.418,90.32 36.211,-10.08 67.852,-41.72 80.192,-77.03"
             style="fill:#ce0f3e;fill-opacity:1;fill-rule:nonzero;stroke:none"
             id="path32" /><path
             d="m 794.531,2259.31 c 18.168,-59.65 28.481,-50.12 20.348,-111.41 26.57,-26.6 38.051,-60.97 52.699,-93.55 6.91,-30.7 18.363,-63.28 6.91,-95.82 18.321,-7.77 23.832,-25.67 37.114,-39.42 12.847,-27.53 32.109,-51.36 38.519,-81.64 14.219,-15.58 36.25,-24.29 47.219,-41.71 l 4.61,0 c 14.65,17.42 36.68,25.66 58.25,32.1 18.32,29.81 43.08,63.72 73.78,78.87 6.88,7.78 4.61,19.26 8.72,27.5 6.91,39.46 32.1,71.53 56.4,102.7 l 3.2,0 18.83,-34.38 c -26.6,-29.8 -50.9,-64.65 -56.4,-105.47 -4.14,-7.77 -13.75,-7.34 -19.73,-13.28 -19.73,-21.09 -41.72,-44.49 -44.92,-73.83 -2.31,-31.17 -40.35,-21.09 -59.61,-33.94 -19.73,-9.61 -36.99,-13.44 -54.88,-27.19 -28.442,21.1 -56.41,49.96 -91.68,59.61 -5.082,43.09 -1.531,88.63 -55.039,137.54 7.609,88.67 -24.461,139.1 -75.82,176.68 16.211,95.39 -31.172,153.16 -52.742,170.59 0,0 47.543,-17.11 84.222,-33.95"
             style="fill:#b6bcbb;fill-opacity:1;fill-rule:nonzero;stroke:none"
             id="path34" /><path
             d="m 2044.14,2284.54 c -9.14,-28.9 -26.09,-56.87 -32.07,-88.04 -2.3,-26.56 -4.57,-54.57 -2.3,-81.6 l -29.34,-57.31 c -19.26,-2.3 -37.15,4.57 -57.31,2.27 -0.46,27.07 19.69,45.86 36.22,66.01 -8.25,46.33 5.93,99.53 33.9,135.28 16.99,7.81 33.48,16.52 50.9,23.39"
             style="fill:#b6bcbb;fill-opacity:1;fill-rule:nonzero;stroke:none"
             id="path36" /><path
             d="m 2588.91,2236.85 c 27.03,-1.37 48.55,11.91 75.62,10.08 39.45,-41.72 44.92,-102.7 37.62,-158.64 -4.61,-10.07 -5.55,-26.13 -19.73,-28.43 -41.76,0.93 -80.7,7.81 -113.24,29.8 -21.56,7.35 -45.43,9.18 -61.91,28.44 -6.88,-0.47 -12.39,-6.41 -16.53,-11.91 -10.08,-38.99 -43.98,-72 -84.8,-77.04 -30.28,-6.44 -53.67,10.08 -80.24,15.12 -5.5,-5.51 -2.77,-14.22 -6.44,-20.62 -25.67,-42.66 -70.63,-56.41 -115.55,-61.92 -11.01,9.18 -19.69,20.67 -33.01,26.6 46.33,21.57 89.89,53.21 135.28,74.73 64.18,29.8 129.29,58.24 194.88,85.74 38.52,-3.2 74.73,-12.81 108.67,-27.5 17.85,-11.44 35.31,-23.83 50.86,-40.35 10.12,2.77 0.94,16.95 2.31,26.13 -5.51,33.48 -12.82,67.43 -36.68,92.62 -16.49,2.31 -30.71,-5.94 -47.23,-7.77 -34.38,27.03 -81.13,26.56 -123.32,36.21 -63.75,6.87 -117.38,-16.49 -170.59,-39.42 l -11.91,-10.11 c -32.11,16.52 -71.99,23.4 -107.74,19.72 l 6.41,34.38 58.2,4.14 c 14.22,-2.31 27.54,-7.34 40.82,-11.91 15.12,-3.21 22.04,11.91 34.38,14.21 73.4,37.58 175.16,51.8 253.12,13.29 10.08,-5.04 22,-6.88 30.75,-15.59"
             style="fill:#ce0f3e;fill-opacity:1;fill-rule:nonzero;stroke:none"
             id="path38" /><path
             d="m 643.398,2197.44 c -0.937,-9.18 -14.687,-12.86 -22.027,-17.43 -5.043,32.07 3.199,59.14 5.508,88.95 8.242,-21.56 9.601,-48.17 16.519,-71.52"
             style="fill:#ce0f3e;fill-opacity:1;fill-rule:nonzero;stroke:none"
             id="path40" /><path
             d="m 1884.61,2189.62 c 12.81,-1.36 20.62,-13.28 28.44,-21.99 15.11,-23.4 9.61,-56.41 -3.21,-79.34 -6.44,-27.5 -25.7,1.37 -40.82,-3.2 2.74,4.57 7.31,7.77 10.98,10.98 9.65,11.48 13.79,25.23 13.32,40.82 -2.3,14.22 -11.44,25.23 -25.23,28.44 -11.02,1.36 -18.32,-5.51 -26.61,-11.02 -5.46,-8.24 -10.97,-17.42 -8.71,-27.5 7.82,-8.71 17.43,-13.32 27.5,-17.42 -6.83,-13.75 -22.46,-11.92 -33.9,-16.53 -6.88,3.21 -16.06,8.29 -17.89,16.53 1.83,4.1 1.36,9.14 -2.27,11.91 -8.71,-3.2 -18.36,-7.81 -27.54,-0.9 -15.12,10.98 -8.24,30.71 -5.47,44.93 9.14,-2.31 7.31,-15.12 17.85,-17.43 29.81,-5.97 21.57,33.91 47.23,40.82 12.85,6.84 33.48,10.55 46.33,0.9"
             style="fill:#ce0f3e;fill-opacity:1;fill-rule:nonzero;stroke:none"
             id="path42" /><path
             d="m 988.672,2167.63 c 26.558,-24.77 39.848,-60.98 27.498,-96.76 -0.94,-4.57 1.37,-7.34 4.57,-10.08 26.37,-4.37 82.54,-31.87 110.98,-0.93 10.98,15.58 21.09,36.68 10.98,55.04 -8.25,10.07 -21.53,13.28 -33.91,10.07 -11.49,-3.2 -21.09,-14.68 -24.3,-25.66 2.27,-11.02 7.35,-19.26 17.42,-26.17 -4.14,-11.92 -18.12,-9.85 -33,-5.47 -7.82,3.2 -7.82,11.91 -11.96,17.42 -4.1,7.35 10.08,13.75 -0.9,17.89 -10.54,-4.14 -21.56,0.43 -25.7,10.98 -6.83,16.52 11.95,25.7 13.32,40.35 7.35,-0.43 3.67,-12.38 7.78,-17.42 3.71,-7.78 12.85,-7.35 19.72,-8.71 12.85,17.42 34.85,25.23 56.41,22.93 22.69,-0.71 34.61,-13.75 43.32,-31.64 6.87,-32.07 -2.03,-70.16 -31.41,-89.42 -2.73,0.47 -20.66,-26.33 -96.76,-6.4 -13.28,6.4 -30.7,6.4 -43.98,0 -22.461,-11.49 -25.23,-34.85 -27.539,-56.41 4.141,-12.38 13.32,-29.8 28.437,-33.91 9.652,1.8 21.562,-0.47 28.872,7.78 14.02,17.89 -10.08,39.65 -27.5,33.94 2.77,11.45 13.32,16.96 22.93,21.99 10.07,0.47 16.99,-9.18 24.29,-13.28 0.94,-4.61 2.31,-10.54 6.45,-12.85 10.97,1.37 21.05,4.57 30.7,-1.37 9.65,-9.18 5.51,-22.03 3.67,-33 -5.97,4.1 -13.75,10.07 -21.09,4.57 -20.16,-4.1 -21.09,-36.21 -44.92,-35.32 -22.03,-5.03 -44.499,2.31 -60.55,17.43 -10.551,10.11 -11.449,23.39 -16.48,35.31 0.429,63.75 71.99,107.3 36.21,173.79 -11.019,9.14 -20.16,21.56 -35.32,20.15 -16.949,-1.36 -33.469,-16.48 -39.41,-32.07 0.469,-10.54 6.41,-20.66 16.48,-25.23 12.391,-3.67 20.2,9.61 26.141,17.42 5.039,4.14 1.399,17.89 11.008,13.28 9.652,-12.81 6.883,-27.97 1.371,-41.72 -7.77,-11.91 -31.172,-19.25 -18.789,-37.57 -2.77,-9.65 -11.441,-17.43 -21.992,-18.79 -6.449,2.26 -15.59,-0.47 -18.789,6.87 5.039,6.41 16.949,13.75 16.48,24.3 -3.199,11.44 -15.582,14.18 -24.289,19.73 -11.019,12.34 -14.691,27.5 -16.531,43.98 1.41,20.66 19.5,36.91 33.012,47.27 23.398,11.44 55.039,12.81 77.07,-2.31"
             style="fill:#ce0f3e;fill-opacity:1;fill-rule:nonzero;stroke:none"
             id="path44" /><path
             d="m 2752.58,2038.76 c -2.78,-16.48 -12.38,-29.8 -18.36,-44.92 -9.61,1.84 -19.73,5.04 -27.5,6.41 -44.45,20.19 -100.43,18.83 -147.66,5.51 -57.73,-19.73 -120.11,-29.34 -175.11,-56.84 -56.41,-6.88 -102.74,-38.09 -157.31,-49.53 -0.9,11.44 -5.98,21.99 -9.61,33.01 23.83,0.46 47.23,9.64 67.85,21.99 17.42,9.18 33.48,19.72 46.29,34.88 11.49,5.04 12.38,27.03 27.54,15.55 l 7.77,-2.27 c 34.42,-1.36 71.53,4.14 101.37,21.1 18.79,13.28 33.01,33.94 48.13,51.79 10.97,-2.3 20.62,-12.81 32.11,-16.48 43.08,-24.3 101.32,-27.97 149.45,-22.03 28.91,18.36 34.41,52.26 38.51,83.47 0,15.59 1.37,34.38 -5.46,48.6 21.09,-38.05 37.11,-84.38 21.99,-130.24"
             style="fill:#b6bcbb;fill-opacity:1;fill-rule:nonzero;stroke:none"
             id="path46" /><path
             d="m 667.23,2118.1 c -7.351,-10.55 -22,-12.38 -31.64,-22.03 -37.149,-31.17 -77.039,-67.85 -102.27,-108.63 -70.121,13.75 -121.48,-38.09 -180.621,-60.55 -49.07,-30.24 -98.129,-59.14 -138.48,-102.7 -6.449,-8.71 -5.981,-20.62 -9.18,-30.74 -45.859,-11.44 -89.809,-75.98 -103.09,-129.18 -1.828,-27.03 19.262,-45.86 37.153,-62.34 l 77.027,-57.31 c -14.719,-23.36 -29.801,-64.65 -31.641,-73.83 -26.129,16.49 -40.347,40.36 -46.289,68.32 l -5.5,4.11 c -24.769,-2.74 -47.699,7.81 -66.0584,21.09 -20.1601,26.6 -14.6523,61.02 -18.789,94.45 2.6992,60.9 35.6679,110.39 67.3084,137 15.578,4.6 29.371,11.91 44.02,19.72 4.609,0.47 10.121,-0.94 12.851,4.57 9.61,20.2 27.028,38.05 43.09,55.04 78.859,64.18 166.91,120.59 263.199,149.45 12.852,4.15 27.032,5.51 40.352,7.82 3.668,17.42 37.578,47.69 36.68,50.43 24.769,24.29 56.878,46.32 82.539,66.01 5.937,1.41 13.75,11.49 18.32,4.61 5.078,-11.48 2.769,-25.23 11.019,-35.31"
             style="fill:#ce0f3e;fill-opacity:1;fill-rule:nonzero;stroke:none"
             id="path48" /><path
             d="m 1725.04,2148.8 c 20.62,-1.36 29.34,-23.83 40.78,-37.11 2.77,-7.81 7.81,-16.05 6.45,-24.29 -8.72,4.57 -22,5.46 -30.75,3.2 -9.14,12.81 -19.22,37.11 -39.88,36.21 -8.24,7.34 -18.36,0.9 -27.5,-0.94 -11.95,-5.93 -13.79,-21.09 -22.03,-26.56 0,4.1 0,10.98 4.61,14.65 6.87,14.22 1.83,43.55 25.19,41.76 14.22,-2.31 33.05,5.47 43.13,-6.92"
             style="fill:#ce0f3e;fill-opacity:1;fill-rule:nonzero;stroke:none"
             id="path50" /><path
             d="m 1714.96,2091.97 c 1.84,-4.14 0.9,-9.65 1.37,-14.69 -20.63,-11.92 -42.66,-23.36 -60.55,-39.42 -5.51,13.29 -7.77,27.97 -12.34,41.72 -0.94,6.88 5.94,10.55 6.83,16.49 l 1.84,0 c 0,-8.24 -0.43,-20.16 7.81,-25.2 6.45,-4.57 15.59,-9.65 23.36,-4.57 11.06,10.08 9.65,27.5 14.26,40.78 8.24,-0.89 13.28,-8.24 17.42,-15.11"
             style="fill:#231f20;fill-opacity:1;fill-rule:nonzero;stroke:none"
             id="path52" /><path
             d="m 1641.13,1999.35 c -8.28,-38.99 -13.75,-78.87 -22.03,-117.85 -5.51,6.87 -15.12,7.34 -14.22,17.89 17.11,52.77 -28.04,85.97 -3.2,103.16 l 21.09,38.52 c 13.75,-9.65 6.45,-30.28 18.36,-41.72"
             style="fill:#b6bcbb;fill-opacity:1;fill-rule:nonzero;stroke:none"
             id="path54" /><path
             d="m 2190.43,1888.37 c 10.08,-48.12 10.08,-104.06 0,-152.22 -10.55,-2.74 -22.93,-2.74 -33.95,-4.11 14.69,57.31 14.69,131.57 0,190.28 -8.24,19.72 -20.62,38.98 -34.37,54.1 10.12,6.87 17.42,-5.04 25.23,-9.18 20.16,-21.99 35.75,-49.53 43.09,-78.87"
             style="fill:#ffffff;fill-opacity:1;fill-rule:nonzero;stroke:none"
             id="path56" /><path
             d="m 1573.24,1889.31 c 0,0 18.36,-27.07 23.87,-36.25 -12.85,-5.51 -28.44,-3.67 -42.66,-5.51 -5.93,8.28 -25.19,51.84 -25.19,62.85 18.32,15.59 31.64,35.75 47.22,53.64 2.74,-9.18 13.48,-39.65 -3.24,-74.73"
             style="fill:#ce0f3e;fill-opacity:1;fill-rule:nonzero;stroke:none"
             id="path58" /><path
             d="m 1331.17,1834.27 c 11.02,-11.91 -23.87,-20 -116.91,-35.31 21.99,30.74 41.25,62.38 61.87,93.55 19.73,-19.25 34.42,-39.88 55.04,-58.24"
             style="fill:#ffffff;fill-opacity:1;fill-rule:nonzero;stroke:none"
             id="path60" /><path
             d="m 377.07,1545.52 c -61.019,-10.12 -116.25,-20 -159.57,-146.25 l -7.77,-25.23 c -3.25,22.93 10,188.2 104.532,193.51 23.828,2.74 46.328,-6.44 62.808,-22.03"
             style="fill:#ffffff;fill-opacity:1;fill-rule:nonzero;stroke:none"
             id="path62" /><path
             d="m 96.4492,1507.01 22.9298,-4.15 c 8.711,-27.5 30.269,-52.26 57.34,-62.81 l -0.938,-54.1 c -27.972,7.34 -56.871,20.63 -79.3318,41.72 -14.2187,30.27 -22,64.22 -27.5,95.82 10.0703,-3.2 17.4219,-13.28 27.5,-16.48"
             style="fill:#b6bcbb;fill-opacity:1;fill-rule:nonzero;stroke:none"
             id="path64" /><path
             d="m 2789.8,1901.73 c 0,-0.08 -755.89,-5.39 -756.28,-5.43 -308.44,-17.89 -401.84,-76.72 -463.29,-152.11 -1.36,70.75 -14.61,130.51 -14.49,130.86 -0.31,-0.08 -711.131,-139.69 -1146.638,9.3 0,-0.16 32.617,-283.87 300.117,-428.95 C 684.879,1358.69 597.301,929.781 517.27,649.43 477.621,568.41 292.301,593.531 292.191,593.531 c 95.188,-181.41 72.34,-583.3591 72.34,-583.5193 0.078,0.0391 159.61,70.4297 449.02,165.0783 290.159,92.93 638.989,198.09 1053.599,320.59 0.12,0 238.55,18.859 498.44,158.082 -0.2,0.039 -375.86,78.476 -364.97,299.136 0.24,0.942 82.58,397.072 82.62,397.272 66.53,147.11 225.98,278.01 441.45,388.87 187.89,102.93 265,162.65 265.11,162.69"
             style="fill:#231f20;fill-opacity:1;fill-rule:nonzero;stroke:none"
             id="path66" /><path
             d="m 1462.3,1796.65 c 5.24,-133.51 24.15,-238.47 63.72,-403.71 5.97,54.07 11.4,103.32 17.3,157.58 38.95,130.9 155.78,226.72 350.9,266.72 307.19,28.79 751.4,37.89 751.6,37.89 -311.41,-101.48 -558.98,-266.44 -630.23,-500.39 -29.81,-136.68 -55.55,-256.02 -85.47,-397.728 -23.56,-209.461 221.29,-314.071 221.4,-314.071 -360.5,-96.132 -586.13,-47.929 -738.16,22.387 -151.02,72.344 -212.11,162.531 -212.15,162.613 C 1180.39,735.719 1162.19,655.09 1140.9,561.5 1290.86,540.949 1451.48,514.66 1581.13,474.859 1183.83,359.191 779.691,263.41 447.66,119.078 c 0,0.152 -0.98,308.242 -40.711,400.82 69.223,0 137,18.903 176.922,80.973 0.109,0.391 207.848,890.429 210.43,901.409 -225.391,82.15 -258.641,283.75 -258.641,283.87 302.149,-90.63 644.46,-36.84 926.64,10.5"
             style="fill:#ce0f3e;fill-opacity:1;fill-rule:nonzero;stroke:none"
             id="path68" /><path
             d="m 1361.56,1732.98 c 8.99,-197.19 43.13,-446.52 137.89,-598.51 18.83,-24.3 49.34,-58.01 49.34,-58.01 -0.31,32.11 29.14,65.31 29.14,65.31 -16.76,102.07 10.51,207.07 62.34,268.32 -26.32,45.59 -18.75,98.71 -6.68,149.96 97.58,212.66 290.75,214.03 689.3,225.59 -269.53,-112.81 -439.1,-193.09 -398.48,-386.53 -74.53,-99.96 -103.08,-216.64 -55.82,-321.05 -57.34,-91.091 -157.07,-210.822 36.45,-407.58 -250.86,-17.218 -612.5,72.622 -722.23,451.53 -79.06,-75.51 -135.08,-279.85 -86.95,-397.658 -64.53,-61.993 -130.079,-121.723 -132.071,-214.731 0.121,0 214.371,-6.723 332.931,-50.082 C 841.91,379 504.02,226.109 498.16,223.488 c 28.75,116.641 90.43,206.172 171.449,283.242 -7.847,51.641 -7.461,183.36 111.371,286.02 -10.468,69.961 23.282,315.78 99.961,407.58 -9.222,97.73 -21.722,242.5 26.758,328.75 -112.148,21.68 -240.711,97.11 -277.621,185.23 267.152,-60.66 468.512,-18.71 731.482,18.67"
             style="fill:#ffffff;fill-opacity:1;fill-rule:nonzero;stroke:none"
             id="path70" /><path
             d="m 2108.67,1731.81 c -109.69,-8.2 -245.86,-15.82 -346.83,-104.92 -60.79,-72.19 -71.02,-123.36 -48.83,-206.37 -79.61,-97.5 -75.39,-194.96 -54.96,-303.51 0,-0.04 -74.03,-70.86 -74.85,-151.408 -304.1,171.718 -294.41,635.548 -295.58,694.138 -156.6,-35.47 -309.999,-54.26 -472.78,-27.89 84.89,-58.24 217.07,-60.2 217.15,-60.2 -125.15,-134.61 -81.521,-329.41 -67.189,-390.97 -94.879,-90.04 -132.5,-301.961 -97.5,-405.739 C 784.102,696.891 743.52,646.691 735.078,458.18 661.129,415.359 576.051,305.012 575.16,299.941 c 172.77,86.09 294.371,131.868 479.1,153.469 -56.53,8.399 -105.588,15.942 -161.959,24.692 0,0.078 -23.242,166.558 117.779,261.25 -41.92,141.839 20.04,343.278 106.87,425.818 -22.46,120.82 5.2,188.79 59.93,248.09 0.03,-0.24 85.7,-556.569 571.21,-678.639 -52.7,103.828 -93.99,196.449 53.86,339.809 -117.38,159.84 18.28,300.11 51.37,342.77 -60.08,227.03 161.6,276.56 255.35,314.61"
             style="fill:#231f20;fill-opacity:1;fill-rule:nonzero;stroke:none"
             id="path72" /><path
             d="m 855.43,1445.64 c -31.641,19.1 -66.84,-1.99 -80.821,-11.02 l -1.488,-0.97 -1.402,-1.1 c -26.059,-20.62 -43.481,-35.82 -55.469,-47.26 -31.762,20.82 -63.949,40.11 -96.449,57.65 l 53.789,31.17 44.031,25.47 -37.973,33.91 c -44.808,40 -85.386,60.78 -124.136,63.55 l -55.16,-13.78 c -85.082,1.25 -160.192,-56.14 -160.192,-56.14 -152.539,-111.36 -93.051,-285.11 -93.051,-285.11 0,0 64.653,-129.54 93.442,-173.48 53.039,-81.882 69.097,-102.19 77.179,-110.702 l 23.399,-24.687 c 34.922,0.121 74.812,33.16 74.812,33.16 81.25,1.961 124.61,41.329 124.61,41.329 0,0 35.66,31.68 32.461,65.78 0,0 58.629,8.44 59.019,57.58 0.078,9.96 -2.972,22.77 -14.801,34.65 58.122,24.88 39.489,63.55 33.711,76.87 45.7,5.43 67.028,40.51 67.028,40.51 l 50.98,88.4 c 0,0 22.653,52.38 -13.519,74.22"
             style="fill:#231f20;fill-opacity:1;fill-rule:nonzero;stroke:none"
             id="path74" /><path
             d="m 282.301,1253.8 c 31.449,-67.38 61.14,-122.42 89.109,-165.04 38.711,-59.84 63.078,-94.998 73.078,-105.58 20.551,16.558 32.274,34.37 35.16,53.43 27.383,0.71 54.063,3.44 79.922,8.09 -32.031,-20.27 -48.011,-34.22 -47.929,-41.76 47.89,5.63 77.89,16.29 104.687,33.05 19.332,22.19 28.012,36.05 11.402,40.55 -42.691,-8.4 -89.531,-17.43 -150.269,-17.82 -15.981,22.43 -33.789,53.95 -43.711,85.47 31.449,-32.38 54.691,-50.54 69.691,-54.53 14.059,3.32 20.661,17.66 19.797,43.05 20.313,-5.7 48.133,-7.85 83.442,-6.37 -38.59,-12.11 -56.481,-22.62 -53.629,-31.52 l 118.859,15.62 c 27.93,13.25 30.711,25.47 8.289,36.72 l -166.84,3.56 c -20.898,17.18 -42.418,48.16 -57.148,79.49 34.769,-35.47 62.5,-47.97 83.199,-37.42 13.129,12.34 11.102,26.36 -6.09,42.11 52.11,-7.5 86.52,-10.71 103.239,-9.65 -37.028,-8.83 -54.571,-19.96 -52.579,-33.44 33.168,-9.53 65.75,-5.08 101.02,1.17 36.449,9.26 44.922,31.76 17.969,50.24 l -167.617,11.68 c -35.352,12.5 -55.352,39.37 -67.114,72.65 45.16,-36.68 76.332,-48.71 93.481,-36.09 9.84,18.59 5.703,39.3 -12.418,62.15 58.277,-25.32 101.32,-36.96 129.14,-34.89 -58.91,-10.31 -77.781,-19.53 -58.519,-37.11 l 105.59,-4.92 c 20.578,-1.29 46.328,11.21 62.687,28.52 l 46.492,80.58 c 9.797,35.43 -3.562,41.37 -40.082,17.86 -38.75,-30.71 -62.929,-52.93 -72.578,-66.64 -78.359,54.06 -158.551,97.46 -240.582,130.19 46.403,-0.66 77.571,-3.2 93.551,-7.62 l 80.078,46.41 c -38.129,34.06 -72.187,52.15 -102.187,54.26 l -47.301,-13.87 c -45.789,2.7 -92.352,-12.5 -139.731,-45.7 -78.519,-76.37 -106.757,-156.96 -84.648,-241.8 l 1.09,-5.08"
             style="fill:#fde1b2;fill-opacity:1;fill-rule:nonzero;stroke:none"
             id="path76" /><path
             d="m 2128.01,1965.21 c 0,0 -6.64,26.87 -77.15,51.64 0,0 -31.25,13.67 -32.93,15.9 -19.69,32.69 -54.69,30.15 -73.83,28.67 -6.83,-0.51 -14.53,-1.09 -18.79,-0.16 -6.29,2.27 -62.3,49.1 -114.57,22.74 -10.15,1.48 -32.19,11.01 -32.19,11.01 -69.96,28.09 -131.87,-64.45 -131.87,-64.45 l 0,-15.94 c -5.2,-11.52 -16.95,-59.53 -16.95,-59.53 -9.85,-39.3 -9.22,-72.19 1.72,-98.28 l -18.56,1.99 8.44,-118.12 c 9.96,-33.79 40.86,-40.82 57.46,-44.61 4.73,-1.06 25.66,-9.61 25.66,-9.61 l 4.65,2.34 c 4.26,-9.02 10.59,-17.65 20.28,-24.88 0,0 25.23,-13.75 78.04,-6.6 1.99,-3.01 20.67,-17.81 20.67,-17.81 46.32,-19.77 101.6,13.71 101.6,13.71 1.13,-0.32 21.68,-6.45 34.22,-6.45 l 11.87,2.38 c 33.99,12.5 45.63,56.14 45.63,56.14 11.56,30.07 74.45,97.54 82.65,107.07 14.06,1.75 23.48,11.52 27.78,21.36 l 0.35,0.75 0.27,0.82 c 23.48,54.14 -4.45,129.92 -4.45,129.92"
             style="fill:#231f20;fill-opacity:1;fill-rule:nonzero;stroke:none"
             id="path78" /><path
             d="m 1815.35,2052.08 c 37.62,19.26 68.79,-9.64 100.9,-20.66 26.09,-7.31 60.98,11.95 76.09,-16.48 9.18,-11.02 15.16,-34.38 35.32,-22 26.13,-11.48 52.26,-20.19 72.46,-43.12 9.61,-32.54 15.54,-70.63 3.16,-103.63 -3.16,-7.31 -9.61,1.36 -14.18,-3.21 -33.94,-42.19 -77.03,-75.19 -96.76,-126.56 -10.54,-12.34 -12.85,-32.07 -28.43,-38.52 -11.92,0 -21.57,4.61 -32.07,6.88 -4.61,22.03 -9.18,46.8 -8.72,67.89 11.92,1.84 31.18,-4.14 38.48,6.87 -22.69,19.57 -10.98,52.74 -10.98,52.74 7.78,23.83 22.04,47.69 27.5,73.79 3.21,6.91 6.88,14.26 8.72,20.66 -9.61,4.1 -25.67,13.6 -35.75,15.86 -11.01,-16.48 6.88,-33.01 -2.3,-48.59 -23.83,-60.08 -60.04,-118.6 -44.49,-192.85 l 0,-3.25 c -21.1,-6.4 -44.92,-15.58 -66.92,-8.71 -17.89,20.2 -14.68,53.21 -13.32,79.34 l 2.31,16.52 c 13.75,0.9 26.13,-3.24 38.51,3.21 -16.99,19.72 -18.79,52.73 -18.79,52.73 12.39,35.74 40.36,112.34 38.52,116.91 -7.34,0.47 -24.53,8.17 -35.63,17.43 -5.5,-15.59 1.37,-31.64 3.68,-46.29 -25.67,-69.73 -71.21,-138.95 -50.63,-221.02 -17.38,-4.61 -36.64,-0.94 -54.1,0.9 -17.85,13.32 -15.55,37.15 -18.75,57.3 2.73,21.57 -6.02,47.7 7.77,65.12 11.49,0 23.4,-5.04 34.38,0 -5.51,8.24 -10.55,16.52 -15.59,25.24 -11.91,45.39 9.65,85.27 24.34,124.25 1.8,5.94 9.14,8.25 9.61,13.28 -13.28,2.78 -30,21.06 -43.28,21.53 l 0.89,-43.99 c -5.46,-40.35 -28.71,-78.39 -41.05,-117.38 -2.3,-38.51 -0.47,-74.73 2.27,-110.94 0,0 -50.43,2.74 -57.31,26.14 -3.2,23.82 -8.24,48.59 -7.77,74.72 16.91,-1.83 34.37,4.14 50.9,3.67 l 0,3.21 -26.61,24.29 c -18.82,25.24 -15.15,62.82 -7.81,92.15 10.08,18.36 17.89,69.26 17.89,69.26 24.77,22.46 52.74,60.98 91.21,48.59 13.79,-7.77 29.38,-11.91 46.33,-13.28"
             style="fill:#fde1b2;fill-opacity:1;fill-rule:nonzero;stroke:none"
             id="path80" /><path
             d="m 1015.16,2311.65 133.2,-7.96 c -16.64,-18.56 -26.68,-36.76 -30.24,-54.61 32.82,-38.4 46.65,-95.55 48.44,-111.02 0,0 20.55,-18.4 27.97,-25.27 0,0 18.2,-85.86 56.49,-144.22 0,0 0.97,-33.91 3.82,-44.88 0,0 88.05,-97.39 95.67,-102.19 0,0 103.16,-1.84 127.19,0.47 0,0 139.49,117.54 180.89,283.08 0,0 20.47,16.76 28.99,24.49 0,0 5.35,74.89 48.44,158.05 0,0 -9.14,29.73 -23.79,44.57 l 71.75,3.75 c 24.97,1.64 43.17,3.36 54.65,5.12 55.63,5.66 48.05,81.05 42.62,103.2 -13.75,87.07 -47.23,157.58 -111.13,216.84 -1.49,1.05 -2.97,1.87 -4.46,2.89 l -34.14,16.17 c -20.35,5.39 -40.82,3.36 -61.4,-6.25 -24.92,-10.27 -57.74,-27.34 -98.52,-51.21 0,0 -14.3,6.37 -37.5,11.29 -68.55,4.37 -139.69,-2.85 -213.4,-21.8 l -149.37,43.99 c -41.72,14.25 -76.84,4.64 -105.35,-28.91 -74.96,-95.94 -111.371,-178.13 -109.218,-246.6 1.789,-44.22 21.25,-67.23 58.398,-68.99"
             style="fill:#231f20;fill-opacity:1;fill-rule:nonzero;stroke:none"
             id="path82" /><path
             d="m 1168.44,2281.03 c -11.45,-7.74 -18.48,-15.86 -21.14,-24.34 12.35,-9.41 25.04,-28.32 38.52,-51.99 -10.7,35.51 -16.41,62.5 -17.38,76.33"
             style="fill:#fde1b2;fill-opacity:1;fill-rule:nonzero;stroke:none"
             id="path84" /><path
             d="m 1598.75,2307.86 c -89.92,-38.82 -199.02,-46.13 -327.3,-21.83 l -32.07,-28.67 c 56.91,0.58 105.93,-12.11 146.99,-38.05 18.01,16.8 32.26,27.85 42.73,33.05 16.25,-6.1 29.92,-13.95 41.02,-23.56 57.58,40.94 102.34,58.48 134.26,52.62 l -5.63,26.44"
             style="fill:#fde1b2;fill-opacity:1;fill-rule:nonzero;stroke:none"
             id="path86" /><path
             d="m 1345.31,2206.81 c -6.44,-5.98 -15.43,-9.37 -25.11,-8.59 -17.04,1.32 -30.08,14.92 -30.4,31.01 4.69,-0.62 9.46,-1.64 14.34,-3.01 -0.66,-9.18 6.52,-17.07 16.02,-17.81 5.46,-0.43 10.5,1.6 13.94,5.12 3.67,-2.07 7.42,-4.3 11.21,-6.72"
             style="fill:#ffffff;fill-opacity:1;fill-rule:nonzero;stroke:none"
             id="path88" /><path
             d="m 1504.8,2227.2 c 6.72,-5.55 15.9,-8.36 25.55,-6.99 16.88,2.42 29.18,16.87 28.6,32.93 -4.61,-0.94 -9.34,-2.23 -14.11,-3.95 1.14,-9.06 -5.58,-17.42 -15.04,-18.79 -5.42,-0.78 -10.58,0.9 -14.18,4.22 -3.59,-2.3 -7.18,-4.76 -10.82,-7.42"
             style="fill:#ffffff;fill-opacity:1;fill-rule:nonzero;stroke:none"
             id="path90" /><path
             d="m 1366.45,2001.58 c 24.14,17.57 60.58,24.41 80.66,23.51 36.64,-1.68 69.49,-13.36 79.02,-26.64 0,0 -79.18,-3.4 -159.68,3.13"
             style="fill:#ffffff;fill-opacity:1;fill-rule:nonzero;stroke:none"
             id="path92" /><path
             d="m 1092.66,2600.13 c -48.25,-63.91 -78.75,-127.07 -91.53,-189.53 -8.669,-43.83 8.4,-62.11 52.85,-64.84 l 216.1,-14.18 c 0,0 62.97,-22.82 139.06,-23.64 -71.09,15.12 -128.91,40.63 -128.91,40.63 l -226.01,16.99 c -29.96,2.11 -38.6,17.89 -32.27,57.03 6.64,32.85 34.14,116.25 70.71,177.54"
             style="fill:#ce0f3e;fill-opacity:1;fill-rule:nonzero;stroke:none"
             id="path94" /><path
             d="m 1652.81,2212.59 c 5.55,35.51 17.42,65.43 37.66,84.61 l 13.36,-11.84 c -15.16,-16.75 -33.28,-40.93 -51.02,-72.77"
             style="fill:#fde1b2;fill-opacity:1;fill-rule:nonzero;stroke:none"
             id="path96" /><path
             d="m 1766.13,2630.44 c 0,0 92.58,-112.58 97.42,-230.11 1.22,-29.26 -23.47,-35.47 -48.08,-38.44 -24.69,-3.01 -101.56,1.13 -143.05,6.44 0,0 155.28,-4.37 167.5,30.82 14.14,40.82 -45.15,177.35 -73.79,231.29"
             style="fill:#ce0f3e;fill-opacity:1;fill-rule:nonzero;stroke:none"
             id="path98" /><path
             d="m 1432.42,1952.32 c 2.5,4.02 2.23,13.79 1.68,27.77 -19.92,1.6 -85.62,0.98 -124.8,-10.43 -2,16.1 -5,35.47 -6.84,61.76 4.96,13.87 12.77,29.77 23.36,47.69 -10.47,-5.58 -33.55,-20.11 -46.44,-45.39 -16.96,17.82 -23.91,34.85 -28.05,76.53 15.43,-15.47 33.9,-24.03 55.43,-25.67 13.04,16.18 35.74,34.93 68.08,56.33 l 23.13,-21.64 -4.69,-7.66 -21.21,6.96 c -33.44,-28.17 -47.07,-67.58 -40.86,-118.17 27.66,20.63 56.09,34.77 85.31,42.5 l 0.2,11.14 -30.86,19.72 -23.28,-8.94 -2.78,7.19 27.86,26.4 41.64,-20 -6.29,144.81 c -12.85,-13.48 -20.2,-29.65 -22.03,-48.44 -16.02,-8.05 -35.51,-11.45 -58.44,-10.27 14.96,6.05 24.96,12.18 29.96,18.47 -4.1,6.76 -13.91,13.4 -13.91,13.4 -9.14,-10.35 -25.93,-16.52 -41.29,-15.31 -25.46,1.99 -45.7,25.27 -43.94,49.61 l -13.52,-0.2 c -2.26,-22.19 2.54,-39.49 14.46,-51.91 l -23.25,6.52 c -12.53,18.2 -19.14,31.37 -19.8,39.57 -4.53,-4.84 -11.48,-11.52 -13.52,-16.87 l 14.46,-30.63 c -17.46,-56.6 -1.64,-123.59 47.54,-200.94 l -1.8,-33.32 89.49,-85.04 43.2,12.93 17.43,48.99 c -15.04,8.98 -37.62,15.62 -70.12,14.61 11.21,15.55 36.05,21.48 74.49,17.93"
             style="fill:#fde1b2;fill-opacity:1;fill-rule:nonzero;stroke:none"
             id="path100" /><path
             d="m 1607.81,2185.79 c 7.89,13.87 12.81,30 14.89,48.36 -2.66,5.16 -6.45,9.93 -11.29,14.26 -12.74,-28.01 -27.58,-43.87 -44.5,-47.65 10.82,12.34 19.42,33.78 20.47,51.05 l -10.11,3.24 c -3.25,-18.2 -9.57,-39.72 -30.47,-47.58 -24.69,-9.76 -44.73,-2.96 -54.34,5.59 l -8.01,-6.68 c 5.32,-10.7 14.18,-18.55 26.6,-23.52 -21.05,-3.08 -36.44,1.22 -49.49,10.51 l 7.35,-112.11 c 12.18,6.21 27.3,15.55 32.11,25.94 l 25.62,-21.48 -2.66,-8.09 c 0,0 -15.5,2.07 -24.45,1.41 -7.11,-7.85 -18.79,-17.78 -29.8,-26.6 l -0.86,-11.53 c 70.35,-4.96 81.95,-49.76 81.95,-49.76 0,0 -14.92,-13.21 -84.26,-11.92 0,0 34.14,-11.09 46.02,-20.9 -5.31,-15.27 -5.28,-34.37 -17.58,-56.01 67.93,72.58 114.69,168.59 124.26,242.93 2.58,19.61 -0.12,31.6 -11.45,40.54"
             style="fill:#fde1b2;fill-opacity:1;fill-rule:nonzero;stroke:none"
             id="path102" /></g></g></g></g></svg>