<?xml version="1.0" encoding="UTF-8" standalone="no"?>
<!-- Created with Inkscape (http://www.inkscape.org/) -->

<svg
   xmlns:dc="http://purl.org/dc/elements/1.1/"
   xmlns:cc="http://creativecommons.org/ns#"
   xmlns:rdf="http://www.w3.org/1999/02/22-rdf-syntax-ns#"
   xmlns:svg="http://www.w3.org/2000/svg"
   xmlns="http://www.w3.org/2000/svg"
   xmlns:sodipodi="http://sodipodi.sourceforge.net/DTD/sodipodi-0.dtd"
   xmlns:inkscape="http://www.inkscape.org/namespaces/inkscape"
   id="svg2"
   version="1.1"
   inkscape:version="0.48.3.1 r9886"
   width="167.0875"
   height="49.375"
   xml:space="preserve"
   sodipodi:docname="xCellerator-Logo.svg"
   inkscape:export-filename="/home/mathman/src/xlr8r/xlr8rweb/xCellerator-Logo.jpg.png"
   inkscape:export-xdpi="90"
   inkscape:export-ydpi="90"><metadata
     id="metadata8"><rdf:RDF><cc:Work
         rdf:about=""><dc:format>image/svg+xml</dc:format><dc:type
           rdf:resource="http://purl.org/dc/dcmitype/StillImage" /><dc:title></dc:title></cc:Work></rdf:RDF></metadata><defs
     id="defs6"><clipPath
       clipPathUnits="userSpaceOnUse"
       id="clipPath18"><path
         d="M 0,395 0,0 l 1336.67,0 0,395"
         id="path20" /></clipPath></defs><sodipodi:namedview
     pagecolor="#ffffff"
     bordercolor="#666666"
     borderopacity="1"
     objecttolerance="10"
     gridtolerance="10"
     guidetolerance="10"
     inkscape:pageopacity="0"
     inkscape:pageshadow="2"
     inkscape:window-width="1072"
     inkscape:window-height="686"
     id="namedview4"
     showgrid="false"
     showguides="true"
     inkscape:guide-bbox="true"
     inkscape:zoom="2.9708325"
     inkscape:cx="81.698303"
     inkscape:cy="-21.277032"
     inkscape:window-x="2535"
     inkscape:window-y="284"
     inkscape:window-maximized="0"
     inkscape:current-layer="g10" /><g
     id="g10"
     inkscape:groupmode="layer"
     inkscape:label="ink_ext_XXXXXX"
     transform="matrix(1.25,0,0,-1.25,0,49.375)"><path
       inkscape:connector-curvature="0"
       id="path22"
       style="fill:#ff7636;fill-opacity:0.627451;fill-rule:nonzero;stroke:none"
       d="m 0.166406,0 132.501004,0 0,38.5 -132.501004,0 0,-38.5 z" /><path
       inkscape:connector-curvature="0"
       id="path24"
       style="fill:#000000;fill-opacity:1;fill-rule:nonzero;stroke:none"
       d="m 30.4711,23.252 c 0.2527,0.1855 0.4875,0.2714 0.7043,0.2578 0.2168,-0.0137 0.3816,-0.086 0.4945,-0.2188 0.1129,-0.1328 0.1598,-0.3086 0.141,-0.5273 -0.0195,-0.2188 -0.1386,-0.4407 -0.3574,-0.666 -0.5613,-0.4778 -1.1133,-0.961 -1.6566,-1.4512 -0.5434,-0.4914 -1.0778,-0.9883 -1.6031,-1.4922 0.4624,-0.6367 0.8933,-1.2902 1.2917,-1.959 0.3981,-0.6699 0.7625,-1.3633 1.0946,-2.0781 0.0426,-0.252 0.0133,-0.4719 -0.0867,-0.6574 -0.1008,-0.1844 -0.2305,-0.3211 -0.3895,-0.4071 -0.1586,-0.0859 -0.332,-0.1152 -0.5203,-0.0898 -0.1887,0.0273 -0.3613,0.1328 -0.5191,0.3183 -0.2911,0.6368 -0.6168,1.2559 -0.9782,1.8594 -0.3617,0.6035 -0.7461,1.1895 -1.1515,1.7598 -1.0344,-1.0742 -2.0399,-2.2207 -3.0153,-3.4395 -0.2191,-0.2265 -0.4394,-0.3515 -0.6625,-0.3789 -0.2226,-0.0254 -0.405,0.0176 -0.548,0.1289 -0.1422,0.1133 -0.2207,0.2793 -0.2348,0.4981 -0.0137,0.2187 0.0778,0.4539 0.2738,0.7058 0.5075,0.6497 1.0356,1.2864 1.5856,1.9094 0.5488,0.6231 1.1133,1.2332 1.6922,1.8301 -0.3555,0.4637 -0.7215,0.9238 -1.0981,1.3816 -0.3765,0.4582 -0.7558,0.9192 -1.1375,1.3829 -0.1812,0.2121 -0.259,0.4269 -0.2336,0.6457 0.0258,0.2187 0.1125,0.3984 0.259,0.5371 0.1465,0.1394 0.3321,0.2265 0.5555,0.2597 0.2238,0.0332 0.4418,-0.0371 0.6555,-0.209 0.382,-0.4648 0.7644,-0.9257 1.1476,-1.3828 0.3828,-0.457 0.752,-0.9179 1.1082,-1.3828 0.5102,0.4903 1.0324,0.9746 1.5672,1.452 0.5344,0.4777 1.0754,0.9484 1.6215,1.4133" /><path
       inkscape:connector-curvature="0"
       id="path26"
       style="fill:#000000;fill-opacity:1;fill-rule:nonzero;stroke:none"
       d="m 40.3004,17.748 c 0.2371,0.1719 0.4687,0.2579 0.6941,0.2579 0.2121,0 0.3805,-0.0735 0.5051,-0.2188 0.1234,-0.1465 0.1695,-0.332 0.1363,-0.5566 -0.0175,-0.1192 -0.0722,-0.2657 -0.164,-0.4375 -0.277,-0.3457 -0.5754,-0.6809 -0.8953,-1.0071 -0.3204,-0.3261 -0.6645,-0.6121 -1.0321,-0.8601 -0.3683,-0.2473 -0.7593,-0.4473 -1.173,-0.6016 -0.4141,-0.1535 -0.8594,-0.2304 -1.3367,-0.2304 -0.7164,0 -1.3481,0.1464 -1.8946,0.4382 -0.5468,0.2922 -0.998,0.6907 -1.3531,1.1965 -0.3551,0.5039 -0.5976,1.0985 -0.7273,1.7832 -0.1301,0.6844 -0.1368,1.418 -0.0207,2.2031 0.0824,0.5575 0.2316,1.0762 0.4476,1.5547 0.2926,0.6367 0.6063,1.1953 0.9414,1.6739 0.3352,0.4785 0.7121,0.9004 1.1301,1.2656 0.4184,0.3652 0.8844,0.6914 1.3969,0.9765 0.5133,0.2856 1.0929,0.5547 1.7402,0.8075 0.4235,0.173 0.8109,0.3058 1.1633,0.3988 0.3516,0.0926 0.6801,0.1394 0.9852,0.1394 0.464,0 0.8617,-0.1328 1.1945,-0.3984 0.3312,-0.2656 0.616,-0.7168 0.8535,-1.3535 0.0219,-0.1191 0.0242,-0.2383 0.0066,-0.3574 -0.0355,-0.2403 -0.1371,-0.4317 -0.3043,-0.5781 -0.1679,-0.1465 -0.3574,-0.2188 -0.5691,-0.2188 -0.252,0 -0.4691,0.1055 -0.65,0.3152 -0.1328,0.3547 -0.2621,0.6047 -0.3863,0.7493 -0.1242,0.1445 -0.2793,0.2167 -0.4649,0.2167 -0.1457,0 -0.3234,-0.0371 -0.5332,-0.1093 -0.2101,-0.0735 -0.475,-0.1621 -0.7957,-0.2688 -0.5332,-0.1992 -1.0531,-0.4402 -1.5597,-0.7254 -0.5059,-0.2851 -0.9641,-0.63 -1.3758,-1.0343 -0.4114,-0.4043 -0.759,-0.8719 -1.043,-1.4024 -0.2844,-0.5301 -0.4758,-1.1336 -0.5758,-1.8094 -0.0707,-0.4777 -0.0668,-0.9453 0.0114,-1.4023 0.0781,-0.457 0.2261,-0.8684 0.4441,-1.2324 0.2176,-0.3653 0.5094,-0.6563 0.875,-0.875 0.3648,-0.2188 0.8062,-0.3281 1.3238,-0.3281 0.3047,0 0.5989,0.0593 0.8813,0.1785 0.2828,0.1191 0.5519,0.2785 0.8066,0.4777 0.2551,0.1992 0.4934,0.418 0.7141,0.6562 0.2207,0.2383 0.4219,0.4766 0.6035,0.7168" /><path
       inkscape:connector-curvature="0"
       id="path28"
       style="fill:#000000;fill-opacity:1;fill-rule:nonzero;stroke:none"
       d="M 46.8938,21.0633 C 46.3656,20.8113 45.9488,20.457 45.6426,20 c -0.3063,-0.4582 -0.4965,-0.9387 -0.5711,-1.4426 0.1023,0.0656 0.2094,0.1192 0.3215,0.1594 0.2488,0.0664 0.5008,0.1348 0.757,0.209 0.2559,0.0722 0.5152,0.1426 0.777,0.209 0.1648,0.039 0.389,0.0984 0.6726,0.1777 0.2832,0.0801 0.5785,0.1727 0.8867,0.2793 0.3071,0.1055 0.5903,0.2285 0.8496,0.3672 0.2594,0.1394 0.4414,0.2949 0.5469,0.4687 0.091,0.4375 0.0285,0.7344 -0.1859,0.8946 -0.2153,0.1582 -0.4887,0.2382 -0.8203,0.2382 -0.3317,0 -0.6848,-0.0566 -1.059,-0.1691 -0.3746,-0.1121 -0.6824,-0.2215 -0.9238,-0.3281 z m 3.2519,-4.2363 c 0.2938,0.1066 0.5344,0.1191 0.7219,0.0402 0.1871,-0.0801 0.3113,-0.2063 0.3711,-0.3789 0.0605,-0.1719 0.0461,-0.3645 -0.0449,-0.5762 -0.0911,-0.2129 -0.2735,-0.3918 -0.5469,-0.5371 -0.4746,-0.252 -0.9797,-0.4844 -1.5149,-0.6965 -0.5351,-0.2117 -1.0675,-0.3574 -1.5968,-0.4375 -0.529,-0.0789 -1.0379,-0.075 -1.5293,0.011 -0.4911,0.0859 -0.9457,0.2871 -1.3629,0.6054 -0.5,0.3848 -0.8477,0.9051 -1.0418,1.5614 -0.195,0.6562 -0.2461,1.339 -0.1543,2.0488 0.0918,0.7101 0.3222,1.3926 0.6914,2.0488 0.3687,0.6563 0.8738,1.1828 1.5164,1.5813 0.6707,0.4109 1.3797,0.7187 2.1258,0.9246 0.7461,0.2062 1.4726,0.2297 2.1781,0.0695 0.3461,-0.0793 0.6461,-0.248 0.8992,-0.507 0.2535,-0.2586 0.4449,-0.5575 0.5738,-0.8953 0.1289,-0.3379 0.1719,-0.6954 0.1301,-1.0735 -0.0429,-0.3777 -0.1883,-0.7332 -0.4363,-1.0644 -0.2801,-0.3711 -0.6524,-0.6864 -1.1145,-0.9442 -0.4625,-0.2597 -0.9562,-0.4785 -1.4793,-0.6562 -0.5238,-0.1797 -1.0433,-0.3293 -1.5578,-0.4485 -0.5148,-0.1191 -0.9652,-0.2312 -1.3527,-0.3379 -0.1649,-0.0398 -0.3188,-0.0457 -0.4606,-0.0195 0.1364,-0.4246 0.3797,-0.7723 0.7305,-1.0437 0.3512,-0.2727 0.8211,-0.3887 1.4102,-0.3489 0.4679,0.0266 0.9547,0.1555 1.4601,0.3879 0.5047,0.2324 0.9664,0.461 1.3844,0.6864" /><path
       inkscape:connector-curvature="0"
       id="path30"
       style="fill:#000000;fill-opacity:1;fill-rule:nonzero;stroke:none"
       d="m 54.9652,15.4551 c 0.2129,-0.1731 0.3231,-0.3692 0.3309,-0.5879 0.0078,-0.2188 -0.05,-0.4063 -0.1731,-0.5664 -0.123,-0.1582 -0.2925,-0.2715 -0.5074,-0.3379 -0.2152,-0.0664 -0.4453,-0.0332 -0.6894,0.0996 -0.1067,0.0801 -0.2149,0.159 -0.3211,0.2383 -0.1074,0.0801 -0.2211,0.1601 -0.3414,0.2383 -0.1035,0.1062 -0.168,0.2058 -0.1938,0.2988 -0.0265,0.0926 -0.039,0.2254 -0.0402,0.3984 l 1.6328,11.0379 c 0.0906,0.252 0.2211,0.4442 0.3926,0.577 0.1715,0.1328 0.3406,0.2019 0.5066,0.209 0.166,0.0066 0.3192,-0.05 0.4602,-0.1692 0.1406,-0.1195 0.2324,-0.3051 0.2746,-0.5566 L 54.7133,15.6336 c 0.0359,-0.0262 0.0742,-0.0566 0.116,-0.0898 0.0414,-0.0333 0.0867,-0.0633 0.1359,-0.0887" /><path
       inkscape:connector-curvature="0"
       id="path32"
       style="fill:#000000;fill-opacity:1;fill-rule:nonzero;stroke:none"
       d="m 60.1367,15.4551 c 0.2129,-0.1731 0.3227,-0.3692 0.3305,-0.5879 0.0082,-0.2188 -0.0496,-0.4063 -0.1727,-0.5664 -0.123,-0.1582 -0.2925,-0.2715 -0.5074,-0.3379 -0.2152,-0.0664 -0.4453,-0.0332 -0.6894,0.0996 -0.1071,0.0801 -0.2149,0.159 -0.3211,0.2383 -0.1075,0.0801 -0.2215,0.1601 -0.3414,0.2383 -0.1036,0.1062 -0.168,0.2058 -0.1938,0.2988 -0.0266,0.0926 -0.0391,0.2254 -0.0402,0.3984 l 1.6328,11.0379 c 0.0902,0.252 0.2207,0.4442 0.3926,0.577 0.1714,0.1328 0.3402,0.2019 0.5062,0.209 0.166,0.0066 0.3195,-0.05 0.4606,-0.1692 0.1406,-0.1195 0.2324,-0.3051 0.2746,-0.5566 L 59.8848,15.6336 c 0.0355,-0.0262 0.0742,-0.0566 0.1156,-0.0898 0.0418,-0.0333 0.0871,-0.0633 0.1363,-0.0887" /><path
       inkscape:connector-curvature="0"
       id="path34"
       style="fill:#000000;fill-opacity:1;fill-rule:nonzero;stroke:none"
       d="M 66.107,21.0633 C 65.5793,20.8113 65.1621,20.457 64.8559,20 c -0.3067,-0.4582 -0.4965,-0.9387 -0.5711,-1.4426 0.1023,0.0656 0.2093,0.1192 0.3218,0.1594 0.2485,0.0664 0.5004,0.1348 0.7567,0.209 0.2558,0.0722 0.5152,0.1426 0.7769,0.209 0.1649,0.039 0.3891,0.0984 0.6727,0.1777 0.2832,0.0801 0.5789,0.1727 0.8867,0.2793 0.3066,0.1055 0.5906,0.2285 0.8496,0.3672 0.2594,0.1394 0.4414,0.2949 0.5469,0.4687 0.091,0.4375 0.0285,0.7344 -0.1859,0.8946 -0.2153,0.1582 -0.4887,0.2382 -0.8204,0.2382 -0.3312,0 -0.6843,-0.0566 -1.0589,-0.1691 -0.3747,-0.1121 -0.6821,-0.2215 -0.9239,-0.3281 z m 3.252,-4.2363 c 0.2937,0.1066 0.534,0.1191 0.7226,0.0402 0.1864,-0.0801 0.3106,-0.2063 0.3711,-0.3789 0.0606,-0.1719 0.045,-0.3645 -0.0461,-0.5762 -0.0906,-0.2129 -0.273,-0.3918 -0.5468,-0.5371 -0.4746,-0.252 -0.9793,-0.4844 -1.5145,-0.6965 -0.5351,-0.2117 -1.0676,-0.3574 -1.5969,-0.4375 -0.5285,-0.0789 -1.0379,-0.075 -1.5293,0.011 -0.491,0.0859 -0.9457,0.2871 -1.3625,0.6054 -0.5,0.3848 -0.8476,0.9051 -1.0421,1.5614 -0.195,0.6562 -0.2461,1.339 -0.1543,2.0488 0.0918,0.7101 0.3222,1.3926 0.6914,2.0488 0.3687,0.6563 0.8742,1.1828 1.5168,1.5813 0.6703,0.4109 1.3789,0.7187 2.1254,0.9246 0.746,0.2062 1.4726,0.2297 2.1777,0.0695 0.3465,-0.0793 0.6465,-0.248 0.9004,-0.507 0.2527,-0.2586 0.4441,-0.5575 0.573,-0.8953 0.1289,-0.3379 0.1719,-0.6954 0.1301,-1.0735 -0.043,-0.3777 -0.1887,-0.7332 -0.4355,-1.0644 -0.2813,-0.3711 -0.6524,-0.6864 -1.1153,-0.9442 -0.4625,-0.2597 -0.9562,-0.4785 -1.4797,-0.6562 -0.5234,-0.1797 -1.0429,-0.3293 -1.5574,-0.4485 -0.5148,-0.1191 -0.9652,-0.2312 -1.3527,-0.3379 -0.1649,-0.0398 -0.3188,-0.0457 -0.4602,-0.0195 0.136,-0.4246 0.3793,-0.7723 0.7305,-1.0437 0.3508,-0.2727 0.8207,-0.3887 1.4101,-0.3489 0.4676,0.0266 0.9543,0.1555 1.4598,0.3879 0.5051,0.2324 0.9664,0.461 1.3844,0.6864" /><path
       inkscape:connector-curvature="0"
       id="path36"
       style="fill:#000000;fill-opacity:1;fill-rule:nonzero;stroke:none"
       d="m 73.5152,21.4344 c -0.1836,0.1066 -0.3105,0.2316 -0.3816,0.3781 -0.0715,0.1453 -0.0961,0.291 -0.0746,0.4375 0.0305,0.1992 0.1281,0.375 0.2969,0.5273 0.1671,0.1524 0.3781,0.2286 0.63,0.2286 0.1844,0 0.4063,-0.0664 0.6641,-0.1993 0.2578,-0.1328 0.4551,-0.2785 0.5898,-0.4375 0.461,0.3446 0.927,0.6289 1.3973,0.8555 0.4707,0.2246 0.9328,0.3379 1.384,0.3379 0.1316,0 0.3191,-0.0332 0.5613,-0.0996 0.2422,-0.0664 0.4758,-0.166 0.7024,-0.2988 0.2246,-0.1329 0.416,-0.3047 0.5703,-0.5168 0.1543,-0.2118 0.2097,-0.4571 0.1687,-0.7352 -0.0332,-0.2258 -0.1336,-0.4082 -0.2996,-0.5469 -0.166,-0.1398 -0.3554,-0.209 -0.5676,-0.209 -0.1453,0 -0.2695,0.0418 -0.3691,0.127 -0.1004,0.084 -0.2,0.1758 -0.2977,0.2734 -0.0988,0.0977 -0.2043,0.1856 -0.3195,0.2637 -0.1141,0.0781 -0.2508,0.1172 -0.4101,0.1172 -0.1856,0 -0.3965,-0.0566 -0.6309,-0.1691 -0.2363,-0.1122 -0.4746,-0.2481 -0.7168,-0.4071 -0.2422,-0.1582 -0.4766,-0.3301 -0.7031,-0.5156 -0.2266,-0.1855 -0.4227,-0.3508 -0.5906,-0.4961 l -0.7813,-5.2805 c -0.0586,-0.3046 -0.1809,-0.532 -0.3691,-0.6843 -0.1868,-0.1524 -0.3801,-0.2286 -0.5793,-0.2286 -0.1844,0 -0.3457,0.0704 -0.4832,0.209 -0.1387,0.1387 -0.2063,0.3536 -0.2024,0.6465 l 0.8027,5.4285 c 0.004,0.0266 0.0059,0.0559 0.004,0.0891 -0.0016,0.0332 -8e-4,0.0633 0.0031,0.0898 0.0039,0.0262 0.0117,0.0567 0.0234,0.0899 0.0117,0.0332 0.0184,0.0625 0.0235,0.0898 l 0.0847,0.5762 c -0.0488,0.0262 -0.0926,0.0457 -0.1297,0.0594" /><path
       inkscape:connector-curvature="0"
       id="path38"
       style="fill:#000000;fill-opacity:1;fill-rule:nonzero;stroke:none"
       d="m 84.6383,16.7273 c 0.0285,0.0129 0.0496,0.0266 0.0652,0.0403 0.0156,0.0125 0.0371,0.0254 0.0656,0.039 -0.0558,0.7957 -0.0156,1.6211 0.1172,2.4766 0.1336,0.8555 0.2598,1.6406 0.3789,2.3574 -0.1203,0 -0.255,-0.0136 -0.4035,-0.041 -0.1504,-0.0254 -0.2988,-0.0625 -0.4441,-0.1094 -0.1465,-0.0461 -0.2785,-0.089 -0.3977,-0.1289 -0.1179,-0.039 -0.2058,-0.0722 -0.2625,-0.0996 -0.4258,-0.1855 -0.8,-0.4277 -1.1211,-0.7258 -0.3234,-0.2976 -0.6015,-0.6297 -0.834,-0.9941 -0.2324,-0.3641 -0.4257,-0.7488 -0.5769,-1.1531 -0.1547,-0.4043 -0.2609,-0.8125 -0.3215,-1.2239 0.0106,-0.1062 0.0281,-0.2117 0.0516,-0.3183 0.0246,-0.1063 0.0422,-0.2117 0.0531,-0.3172 0.0562,-0.0664 0.116,-0.1406 0.1754,-0.2199 0.0625,-0.0789 0.1269,-0.1524 0.1972,-0.2176 0.1106,-0.0539 0.2239,-0.0996 0.3372,-0.1406 0.1132,-0.0391 0.2273,-0.0793 0.3406,-0.1192 0.2246,0 0.4426,-0.0058 0.6535,-0.0195 0.209,-0.0137 0.4258,0.0137 0.6484,0.0801 0.2176,0.1328 0.4325,0.2644 0.6453,0.3972 0.2122,0.1321 0.4219,0.2786 0.6321,0.4375 z m 2.3281,-1.3718 c -0.0019,-0.0137 -0.0098,-0.0196 -0.0234,-0.0196 0.0527,-0.1855 0.0468,-0.3586 -0.0157,-0.5175 -0.0656,-0.1594 -0.1601,-0.2891 -0.2863,-0.3887 -0.1277,-0.0988 -0.284,-0.1621 -0.4656,-0.1887 -0.1836,-0.0262 -0.3731,0.0137 -0.5703,0.1203 -0.1016,0.1192 -0.1946,0.2481 -0.2805,0.3867 -0.0848,0.1395 -0.157,0.2821 -0.2148,0.4278 -0.2977,-0.2246 -0.6141,-0.4336 -0.9473,-0.627 -0.334,-0.1914 -0.6551,-0.2941 -0.9617,-0.3078 -0.5332,-0.0262 -1.0586,-0.032 -1.5735,-0.0203 -0.5156,0.0137 -0.9804,0.1863 -1.3953,0.5176 -0.3437,0.2793 -0.5898,0.6094 -0.7382,0.9941 -0.1485,0.3848 -0.2208,0.793 -0.218,1.2235 0.0058,0.4308 0.0746,0.8722 0.207,1.3234 0.1328,0.45 0.309,0.8809 0.5293,1.293 0.0938,0.1855 0.2063,0.3632 0.3383,0.5359 0.1305,0.173 0.2633,0.3516 0.398,0.5383 0.1836,0.2637 0.3868,0.5125 0.6067,0.7449 0.2195,0.2316 0.4617,0.4348 0.7254,0.6066 0.1906,0.1192 0.3769,0.2383 0.5605,0.3575 0.1836,0.1191 0.3692,0.2324 0.5586,0.3386 0.1309,0.0793 0.3242,0.1633 0.5832,0.2493 0.2567,0.0859 0.5332,0.1582 0.8281,0.2187 0.293,0.0586 0.5829,0.0899 0.8684,0.0899 0.2848,0 0.5211,-0.0411 0.7086,-0.1204 0.1894,0.0266 0.3644,-0.0203 0.5266,-0.1394 0.1601,-0.1192 0.2683,-0.3106 0.3222,-0.5762 -0.134,-0.9023 -0.2754,-1.8105 -0.4238,-2.7246 -0.1496,-0.916 -0.2238,-1.8242 -0.2238,-2.7246 -0.0039,-0.1203 0.0234,-0.2629 0.0851,-0.4277 0.0613,-0.1661 0.1317,-0.3282 0.207,-0.4883 0.0762,-0.1582 0.1434,-0.3047 0.2032,-0.4375 0.0605,-0.1328 0.0879,-0.2188 0.082,-0.2578" /><path
       inkscape:connector-curvature="0"
       id="path40"
       style="fill:#000000;fill-opacity:1;fill-rule:nonzero;stroke:none"
       d="m 89.1668,21.7969 c -0.1164,0.1582 -0.1606,0.3301 -0.1332,0.5156 0.0273,0.1844 0.1301,0.366 0.3086,0.5449 0.1789,0.1778 0.4211,0.2676 0.7258,0.2676 l 1.114,0 0.4649,3.1422 c 0.1047,0.2644 0.2394,0.4633 0.4054,0.5961 0.1641,0.1328 0.3399,0.1992 0.5243,0.1992 0.1718,0 0.3242,-0.0602 0.4589,-0.1793 0.1348,-0.1191 0.2161,-0.3047 0.2454,-0.5566 l -0.4739,-3.2016 1.9094,0 c 0.2422,-0.0664 0.4109,-0.1758 0.5078,-0.3273 0.0965,-0.1512 0.1336,-0.3133 0.1082,-0.4852 C 95.3051,22.127 95.2145,21.9629 95.0602,21.8164 94.9059,21.6719 94.691,21.5664 94.4168,21.5 l -1.85,0 C 92.402,20.4785 92.2484,19.4277 92.1051,18.3477 91.9633,17.2676 91.816,16.2168 91.6656,15.1953 91.6207,14.8906 91.4977,14.6621 91.2965,14.5098 91.0953,14.3574 90.902,14.2812 90.7172,14.2812 c -0.1844,0 -0.3457,0.0704 -0.4832,0.209 -0.1387,0.1387 -0.2063,0.3536 -0.2024,0.6465 0.1524,1.0332 0.3047,2.0938 0.4551,3.1817 0.1496,1.0859 0.302,2.1472 0.4551,3.1816 l -1.1727,0 c -0.2871,0.0391 -0.4875,0.1387 -0.6023,0.2969" /><path
       inkscape:connector-curvature="0"
       id="path42"
       style="fill:#000000;fill-opacity:1;fill-rule:nonzero;stroke:none"
       d="m 96.9957,18.916 c -0.0937,-0.2793 -0.1691,-0.5351 -0.2227,-0.7668 -0.0546,-0.2312 -0.0832,-0.493 -0.0871,-0.7851 -0.0125,-0.3582 0.052,-0.6797 0.1953,-0.9649 0.1438,-0.2851 0.3372,-0.5047 0.5801,-0.657 0.2414,-0.1524 0.5254,-0.2246 0.8528,-0.2188 0.3261,0.0078 0.6687,0.1094 1.03,0.3086 0.4766,0.2657 0.8769,0.6102 1.1969,1.0352 0.322,0.4238 0.585,0.8808 0.791,1.3719 0.164,0.3976 0.25,0.8214 0.257,1.2726 0.008,0.4512 -0.07,0.8496 -0.232,1.1934 -0.16,0.3457 -0.409,0.5937 -0.744,0.7461 -0.337,0.1523 -0.7638,0.1289 -1.2833,-0.0696 C 98.766,21.1562 98.2984,20.8184 97.9262,20.3672 97.5543,19.916 97.2438,19.4316 96.9957,18.916 z m -1.4836,0.457 c 0.2082,0.4239 0.4492,0.8379 0.7207,1.2422 0.2715,0.4043 0.5781,0.7735 0.9192,1.1043 0.3406,0.3313 0.7168,0.6164 1.1316,0.8555 0.4121,0.2383 0.8594,0.4113 1.3391,0.5168 0.7943,0.1719 1.4583,0.1133 1.9923,-0.1789 0.533,-0.2918 0.932,-0.7098 1.198,-1.2527 0.263,-0.5442 0.4,-1.1641 0.41,-1.8594 0.01,-0.6973 -0.119,-1.3633 -0.385,-1.9992 -0.316,-0.7821 -0.774,-1.5118 -1.378,-2.1883 -0.604,-0.6758 -1.314,-1.166 -2.1276,-1.4707 -0.6031,-0.2266 -1.1629,-0.3086 -1.6777,-0.25 -0.5145,0.0605 -0.9609,0.2304 -1.3367,0.5078 -0.377,0.2781 -0.6778,0.6426 -0.9024,1.0937 -0.2258,0.4512 -0.3476,0.961 -0.3703,1.5313 -0.0137,0.3582 0.0156,0.7098 0.0871,1.0547 0.0703,0.3445 0.1641,0.6894 0.2813,1.034 l 0.0984,0.2589" /><path
       inkscape:connector-curvature="0"
       id="path44"
       style="fill:#000000;fill-opacity:1;fill-rule:nonzero;stroke:none"
       d="m 105.518,21.4344 c -0.184,0.1066 -0.312,0.2316 -0.382,0.3781 -0.073,0.1453 -0.097,0.291 -0.075,0.4375 0.03,0.1992 0.128,0.375 0.296,0.5273 0.168,0.1524 0.379,0.2286 0.631,0.2286 0.184,0 0.407,-0.0664 0.664,-0.1993 0.258,-0.1328 0.454,-0.2785 0.589,-0.4375 0.462,0.3446 0.928,0.6289 1.399,0.8555 0.47,0.2246 0.931,0.3379 1.382,0.3379 0.132,0 0.321,-0.0332 0.563,-0.0996 0.242,-0.0664 0.476,-0.166 0.701,-0.2988 0.226,-0.1329 0.416,-0.3047 0.57,-0.5168 0.154,-0.2118 0.21,-0.4571 0.169,-0.7352 -0.033,-0.2258 -0.132,-0.4082 -0.299,-0.5469 -0.166,-0.1398 -0.355,-0.209 -0.568,-0.209 -0.145,0 -0.269,0.0418 -0.369,0.127 -0.1,0.084 -0.199,0.1758 -0.298,0.2734 -0.097,0.0977 -0.203,0.1856 -0.319,0.2637 -0.113,0.0781 -0.25,0.1172 -0.41,0.1172 -0.186,0 -0.396,-0.0566 -0.631,-0.1691 -0.235,-0.1122 -0.475,-0.2481 -0.717,-0.4071 -0.242,-0.1582 -0.476,-0.3301 -0.702,-0.5156 -0.227,-0.1855 -0.424,-0.3508 -0.591,-0.4961 l -0.781,-5.2805 c -0.06,-0.3046 -0.182,-0.532 -0.369,-0.6843 -0.188,-0.1524 -0.381,-0.2286 -0.579,-0.2286 -0.186,0 -0.347,0.0704 -0.485,0.209 -0.137,0.1387 -0.206,0.3536 -0.201,0.6465 l 0.803,5.4285 c 0.004,0.0266 0.005,0.0559 0.004,0.0891 -0.003,0.0332 -0.001,0.0633 0.003,0.0898 0.004,0.0262 0.01,0.0567 0.023,0.0899 0.011,0.0332 0.019,0.0625 0.024,0.0898 l 0.084,0.5762 c -0.048,0.0262 -0.092,0.0457 -0.129,0.0594" /><path
       inkscape:connector-curvature="0"
       id="path46"
       style="fill:#eb222c;fill-opacity:1;fill-rule:nonzero;stroke:none"
       d="M 117.086,9 15.0855,9" /><path
       inkscape:connector-curvature="0"
       id="path48"
       style="fill:none;stroke:#ff0000;stroke-width:5;stroke-linecap:butt;stroke-linejoin:miter;stroke-miterlimit:4;stroke-opacity:1;stroke-dasharray:none"
       d="M 117.086,9 15.0855,9" /><path
       inkscape:connector-curvature="0"
       id="path50"
       style="fill:#ff0000;fill-opacity:1;fill-rule:nonzero;stroke:none"
       d="M 17.8344,15.252 6.11719,9.01953 15.9902,2.78711 17.8344,15.252" /><path
       inkscape:connector-curvature="0"
       id="path52"
       style="fill:#333898;fill-opacity:1;fill-rule:nonzero;stroke:none"
       d="m 17.3754,31.0391 102.0006,0" /><path
       inkscape:connector-curvature="0"
       id="path54"
       style="fill:none;stroke:#ff0000;stroke-width:5;stroke-linecap:butt;stroke-linejoin:miter;stroke-miterlimit:4;stroke-opacity:1;stroke-dasharray:none"
       d="m 17.3754,31.0391 102.0006,0" /><path
       inkscape:connector-curvature="0"
       id="path56"
       style="fill:#ff0000;fill-opacity:1;fill-rule:nonzero;stroke:none"
       d="m 116.627,24.7871 11.717,6.2324 -9.873,6.2325 -1.844,-12.4649" /><path
       inkscape:connector-curvature="0"
       id="path58"
       style="fill:none;stroke:#ff7636;stroke-width:2;stroke-linecap:butt;stroke-linejoin:miter;stroke-miterlimit:4;stroke-opacity:1;stroke-dasharray:none"
       d="m 0.97426036,38.5 132.50058964,0 0,-38.5" /><path
       inkscape:connector-curvature="0"
       id="path60"
       style="fill:none;stroke:#ff7636;stroke-width:2;stroke-linecap:butt;stroke-linejoin:miter;stroke-miterlimit:4;stroke-opacity:1;stroke-dasharray:none"
       d="M 133.501,-0.6 1,-0.6 1,37.9" /></g></svg>